:SAMPLES-PER-SECOND 30
:FULLY-SPECIFIED
:DEGREES
209
root  -6.14417782 36.89844327 10.75211097 9.260986328 -37.80299377 -1.411010742
lowerback  11.41110039 8.02466011 -4.367599964
upperback  4.976180077 9.868000031 -5.398139954
thorax  -0.8508740067 4.861899853 -4.384130001
lowerneck  7.455150127 2.658179998 -6.616630077
upperneck  5.751709938 2.520349979 23.25799942
head  -0.1094710007 1.061939955 8.245779991
lclavicle  0 -9.442270133e-015 7.951389973e-016
lhumerus  -26.68350029 -25.8416996 92.09259796
lradius  1.802737755e-031 -3.036277429e-031 120.6989975
lwrist  -1.412450015e-030 1.765562519e-031 40.03889847
lhand  -1.496451383e-031 -27.76390076 20.11240005
lfingers  90 7.125020027 -90
lthumb  89.89689403 5.08795885 91.16245106
rclavicle  0 -9.442270133e-015 7.951389973e-016
rhumerus  17.0673008 -18.51790047 -61.57429886
rradius  1.327609971e-031 3.272047647e-031 67.91549683
rwrist  7.062250077e-031 3.531125038e-031 -57.85720062
rhand  -7.920061211e-032 -33.2840004 9.303460121
rfingers  -90 -7.125020027 -90
rthumb  -92.93752616 -24.25625642 -97.11982154
rfemur  3.483540058 6.210609913 18.17749977
rtibia  -0 0 48.90340042
rfoot  -0 5.792300224 8.489219666
rtoes  5.373923086 19.29304026 -105.8922705
lfemur  -55.29520035 -10.08640003 -5.852519989
ltibia  -0 0 56.25790024
lfoot  -0 -4.950250149 -11.87849998
ltoes  -4.250644065 -19.5611806 -102.515957
210
root  -6.150777697 37.13822252 10.63019985 9.719970703 -38.79400635 -1.348999023
lowerback  11.15190029 7.877319813 -4.961979866
upperback  4.842549801 9.610730171 -5.709720135
thorax  -0.9023720026 4.724269867 -4.336339951
lowerneck  7.351990223 2.902329922 -6.491799831
upperneck  5.958960056 2.817559958 23.38730049
head  -0.08143290132 1.221969962 8.257269859
lclavicle  0 -9.442270133e-015 7.951389973e-016
lhumerus  -27.97999954 -25.35169983 92.14199829
lradius  1.814647581e-031 -3.029174507e-031 120.9240036
lwrist  -7.062250077e-031 2.648343779e-031 40.3526001
lhand  -1.496451383e-031 -27.76390076 20.11240005
lfingers  90 7.125020027 -90
lthumb  89.89689403 5.08795885 91.16245106
rclavicle  0 -9.442270133e-015 7.951389973e-016
rhumerus  14.73180008 -17.49169922 -63.3205986
rradius  1.224865191e-031 3.311880025e-031 69.70359802
rwrist  7.062250077e-031 3.531125038e-031 -58.22449875
rhand  -7.920061211e-032 -33.2840004 9.303460121
rfingers  -90 -7.125020027 -90
rthumb  -92.93752616 -24.25625642 -97.11982154
rfemur  2.512809992 7.248250008 17.78440094
rtibia  -0 0 48.4056015
rfoot  -0 7.224870205 9.624580383
rtoes  5.373923086 19.29304026 -105.8922705
lfemur  -54.87070084 -10.00660038 -5.411449909
ltibia  -0 0 54.94440079
lfoot  -0 -4.487259865 -10.84189987
ltoes  -4.250644065 -19.5611806 -102.515957
211
root  -6.143822257 37.38400016 10.50991148 10.54498291 -39.94299316 -2.085998535
lowerback  10.95820045 7.746930122 -4.889790058
upperback  4.766670227 9.451740265 -5.865039825
thorax  -0.8459060192 4.646309853 -4.493629932
lowerneck  7.38312006 3.253819942 -6.424349785
upperneck  6.099400043 3.270819902 23.49360085
head  -0.1205400005 1.445749998 8.262729645
lclavicle  0 -9.442270133e-015 7.951389973e-016
lhumerus  -29.34740067 -24.66020012 92.25479889
lradius  1.827689023e-031 -3.021323696e-031 121.1709976
lwrist  -7.062250077e-031 3.531125038e-031 40.58860016
lhand  -1.496451383e-031 -27.76390076 20.11240005
lfingers  90 7.125020027 -90
lthumb  89.89689403 5.08795885 91.16245106
rclavicle  0 -9.442270133e-015 7.951389973e-016
rhumerus  12.4982996 -16.32159996 -64.99259949
rradius  1.130402406e-031 3.345300351e-031 71.32949829
rwrist  3.531125038e-031 7.062250077e-031 -58.69739914
rhand  -7.920061211e-032 -33.2840004 9.303460121
rfingers  -90 -7.125020027 -90
rthumb  -92.93752616 -24.25625642 -97.11982154
rfemur  1.674970031 8.508939743 18.07659912
rtibia  -0 0 47.83969879
rfoot  -0 8.592889786 10.76220036
rtoes  5.373923086 19.29304026 -105.8922705
lfemur  -54.2521019 -9.715200424 -4.334040165
ltibia  -0 0 53.60559845
lfoot  -0 -3.845069885 -9.890749931
ltoes  -4.250644065 -19.5611806 -102.515957
212
root  -6.130244413 37.64288895 10.37724412 11.3170166 -41.23199463 -2.874023437
lowerback  10.83479977 7.622409821 -4.914579868
upperback  4.762929916 9.287039757 -5.949779987
thorax  -0.7798370123 4.561289787 -4.531219959
lowerneck  7.457680225 3.686209917 -6.579919815
upperneck  6.24943018 3.817300081 23.68400002
head  -0.1883330047 1.708269954 8.331190109
lclavicle  0 -9.442270133e-015 7.951389973e-016
lhumerus  -30.77389908 -23.72850037 92.3710022
lradius  1.844534668e-031 -3.011068896e-031 121.4909973
lwrist  -7.062250077e-031 1.765562519e-031 40.80929947
lhand  -1.496451383e-031 -27.76390076 20.11240005
lfingers  90 7.125020027 -90
lthumb  89.89689403 5.08795885 91.16245106
rclavicle  0 -9.442270133e-015 7.951389973e-016
rhumerus  10.41720009 -14.95300007 -66.69249725
rradius  1.044123079e-031 3.373225613e-031 72.8010025
rwrist  3.531125038e-031 -0 -59.15499878
rhand  -7.920061211e-032 -33.2840004 9.303460121
rfingers  -90 -7.125020027 -90
rthumb  -92.93752616 -24.25625642 -97.11982154
rfemur  0.960251987 9.912110329 18.37509918
rtibia  -0 0 47.22100067
rfoot  -0 10.22830009 11.34049988
rtoes  5.373923086 19.29304026 -105.8922705
lfemur  -53.48490143 -9.506640434 -3.176189899
ltibia  -0 0 52.2397995
lfoot  -0 -3.046210051 -8.839260101
ltoes  -4.250644065 -19.5611806 -102.515957
